<svg xmlns="http://www.w3.org/2000/svg" xmlns:xlink="http://www.w3.org/1999/xlink" viewBox="6694 397 90 51.322"><defs><style>.a{fill:none;}.b{clip-path:url(#a);}.c{fill:#5b6ffd;}</style><clipPath id="a"><rect class="a" width="90" height="51.322"/></clipPath></defs><g class="b" transform="translate(6694 397)"><g transform="translate(-5 -24.239)"><path class="c" d="M95,69.239a2.7,2.7,0,0,1-2.7,2.7H81.5a2.7,2.7,0,0,1,0-5.4h8.009a39.386,39.386,0,0,0-9.683-23.313l-5.648,5.641a2.7,2.7,0,0,1-3.813-3.812l5.641-5.648A39.416,39.416,0,0,0,52.7,29.732v8a2.7,2.7,0,0,1-5.4,0v-8a39.4,39.4,0,0,0-23.313,9.676L47.86,63.281A6.249,6.249,0,0,1,50,62.91a6.325,6.325,0,1,1-6.322,6.328,6.209,6.209,0,0,1,.371-2.132L20.175,43.226a39.386,39.386,0,0,0-9.683,23.313h8a2.7,2.7,0,1,1,0,5.4H7.7a2.7,2.7,0,0,1-2.7-2.7A44.815,44.815,0,0,1,17.976,37.667c.155-.162.31-.324.479-.479a44.9,44.9,0,0,1,63.077-.014.007.007,0,0,1,.007.007c.182.169.364.351.533.533a.007.007,0,0,1,.007.007A44.834,44.834,0,0,1,95,69.239Z"/></g></g></svg>